<svg xmlns="http://www.w3.org/2000/svg" viewBox="0 0 133.96 34.64"><defs><style>.cls-1{fill:#2c2c2c;}</style></defs><title>Asset 2</title><g id="Layer_2" data-name="Layer 2"><g id="Layer_1-2" data-name="Layer 1"><polygon class="cls-1" points="69.84 15.93 69.84 0.44 60.91 0.44 60.91 16.65 69.84 15.93"/><polygon class="cls-1" points="49.4 17.58 49.4 0.44 40.47 0.44 40.47 18.3 49.4 17.58"/><polygon class="cls-1" points="86.87 14.55 95.81 13.83 95.81 8.71 103.94 8.71 103.94 0.44 78.74 0.44 78.74 8.71 86.87 8.71 86.87 14.55"/><path class="cls-1" d="M9.58,20.8a9.51,9.51,0,0,1-.65-3.48,8.8,8.8,0,0,1,8.74-9A9,9,0,0,1,24.08,11l1.09,1.09,5.9-6.24L30,4.82A17.51,17.51,0,0,0,17.72,0C7.62,0,0,7.45,0,17.32a18.08,18.08,0,0,0,.51,4.21Z"/><path class="cls-1" d="M121.53,11.75c-1-.51-1.76-1-1.76-1.64,0-1.46,2.12-1.84,3.25-1.84a6.72,6.72,0,0,1,4.3,1.62l1.26,1.17,4.9-7L132.3,3.2A15.69,15.69,0,0,0,122.48,0c-5.65,0-11.65,3.56-11.65,10.16a9.57,9.57,0,0,0,.31,2.44Z"/><path class="cls-1" d="M125.55,13.44l-13.62,1.1a10.37,10.37,0,0,0,4,3.9,30.47,30.47,0,0,0,4.27,1.95C123.48,21.68,125,22.46,125,24s-1.2,2.37-3,2.37a8.66,8.66,0,0,1-6.14-2.89l-1.08-1.19-6,6.31,1.13,1a17.85,17.85,0,0,0,12.13,5c6.68,0,11.92-4.71,11.92-10.73C134,17.61,129.49,15.09,125.55,13.44Z"/><path class="cls-1" d="M26.41,21.44l-1,1.24a9.33,9.33,0,0,1-7.51,3.68,8.85,8.85,0,0,1-7.31-3.65l-9.53.77c2.45,6.64,8.81,11.15,16.7,11.15a17.66,17.66,0,0,0,14.1-6.46l.87-1.11-6.31-5.63Z"/><polygon class="cls-1" points="86.87 16.56 86.87 34.2 95.81 34.2 95.81 15.84 86.87 16.56"/><path class="cls-1" d="M60.91,18.66v1.52c0,2.82-.83,3.95-1.56,4.63a6.41,6.41,0,0,1-8.39,0c-.72-.67-1.54-1.8-1.54-4.62v-.59l-8.91.72C40.6,25,42,28.51,44.92,31.09h0a15.28,15.28,0,0,0,10.22,3.54,15.29,15.29,0,0,0,10.23-3.55c3-2.69,4.45-6.4,4.45-11.36v-1.8Z"/></g></g></svg>