<svg xmlns="http://www.w3.org/2000/svg" viewBox="0 0 175.75 32.52"><defs><style>.cls-1{fill:#bf2f38;}.cls-1,.cls-2{fill-rule:evenodd;}.cls-2{fill:#696a6c;}</style></defs><title>Asset 1</title><g id="Layer_2" data-name="Layer 2"><g id="Layer_1-2" data-name="Layer 1"><polygon class="cls-1" points="156.58 0.35 175.75 0.35 175.75 19.52 156.58 19.52 156.58 0.35 156.58 0.35 156.58 0.35"/><polygon class="cls-2" points="155.24 19.52 155.24 14.97 146.94 14.97 146.94 0.35 140.8 0.35 140.8 19.52 155.24 19.52 155.24 19.52 155.24 19.52"/><polygon class="cls-2" points="139.47 19.52 139.47 14.97 131.17 14.97 131.16 0.35 125.03 0.35 125.03 19.52 139.47 19.52 139.47 19.52 139.47 19.52"/><polygon class="cls-2" points="123.69 19.52 123.69 15.34 115.78 15.34 115.78 12.11 121.62 12.11 121.62 7.92 115.78 7.92 115.78 4.52 122.96 4.52 122.96 0.35 109.65 0.35 109.65 19.52 123.69 19.52 123.69 19.52 123.69 19.52"/><polygon class="cls-2" points="90.29 19.52 93.82 7.29 97.33 19.52 102.03 19.52 108.79 0.35 103.04 0.35 99.4 10.27 96.72 0.35 90.91 0.35 88.24 10.27 84.59 0.35 78.84 0.35 85.6 19.52 90.29 19.52 90.29 19.52 90.29 19.52"/><path class="cls-2" d="M33,19.87c6.68,0,11-2.64,11-9.93S39.73,0,33,0,22,2.64,22,9.93s4.33,9.93,11,9.93Zm5-9.93c0,3.77-1.4,5.38-5,5.38s-5-1.61-5-5.38,1.4-5.38,5-5.38,5,1.62,5,5.38Z"/><path class="cls-2" d="M20.3,1.77A20,20,0,0,0,11.77.11C5,.11,0,3.7,0,10.56,0,17.85,5.45,20,12.09,20A35.86,35.86,0,0,0,21,18.64V9.19H12.39v3.77h3.66v2.44a9.65,9.65,0,0,1-3.68.56c-3.92,0-6.56-1.5-6.48-5.64s2.53-5.55,6.72-5.6a20,20,0,0,1,6,1.08l1.7-4Z"/><polygon class="cls-2" points="59.65 19.52 59.65 14.97 51.35 14.97 51.35 0.35 45.21 0.35 45.21 19.52 59.65 19.52 59.65 19.52 59.65 19.52"/><path class="cls-2" d="M61,19.52h9.5c5.24,0,10.08-3.33,10.08-9.59S75.71.35,70.48.35H61V19.52Zm6.14-14.8h3c3.16,0,4.55,2.08,4.55,5.21s-1.39,5.21-4.55,5.21h-3V4.72Z"/><path class="cls-2" d="M114.7,29.65a.42.42,0,0,0-.16,0,.41.41,0,0,0,0-.16V27.75h-.87V32.4h.87V30.49a.41.41,0,0,0,0-.16.41.41,0,0,0,.16,0h1.89a.41.41,0,0,0,.16,0,.41.41,0,0,0,0,.16V32.4h.86V27.75h-.86v1.76a.41.41,0,0,0,0,.16.42.42,0,0,0-.16,0Z"/><path class="cls-2" d="M123.25,32.4h.92l-2-4.73h-.7l-2,4.73h.84l.51-1.26h1.89l.5,1.26Zm-1.57-1.87h-.61c.11-.23.13-.26.25-.56l.13-.33c.17-.42.21-.53.35-.94h0c.13.4.16.5.33.94l.13.34c.11.27.13.32.24.55h-.85Z"/><polygon class="cls-2" points="126.89 27.75 126.03 27.75 126.03 32.4 126.89 32.4 126.89 27.75 126.89 27.75 126.89 27.75"/><path class="cls-2" d="M129.57,32.4h.87V30.76a.42.42,0,0,0,0-.16.41.41,0,0,0,.16,0h.52l1.15,1.78h1L132,30.58a1.87,1.87,0,0,0-.17-.23,1.29,1.29,0,0,0,.88-1.26c0-.89-.69-1.4-1.91-1.4a10.47,10.47,0,0,0-1.26.07V32.4Zm1-2.4a.42.42,0,0,0-.16,0,.41.41,0,0,0,0-.16v-1.3a.45.45,0,0,0,0-.17h.43c.68,0,1,.29,1,.82s-.31.79-.62.79Z"/><path class="cls-2" d="M138.76,28.06a2.62,2.62,0,0,0-1.49-.43,2.37,2.37,0,0,0-2.42,2.46,2.34,2.34,0,0,0,2.4,2.42,2.59,2.59,0,0,0,1.54-.49l-.35-.67a1.84,1.84,0,0,1-1.07.34A1.57,1.57,0,0,1,135.79,30a1.48,1.48,0,0,1,1.49-1.61,1.82,1.82,0,0,1,1.06.33l.43-.7Z"/><path class="cls-2" d="M144.08,32.4H145l-2-4.73h-.7l-2,4.73h.84l.51-1.26h1.89l.5,1.26Zm-1.57-1.87h-.61c.11-.23.13-.26.25-.56l.13-.33c.17-.42.21-.53.35-.94h0c.13.4.16.5.33.94l.13.34c.11.27.13.32.24.55h-.85Z"/><path class="cls-2" d="M146.77,32.4h.87V30.76a.42.42,0,0,0,0-.16.41.41,0,0,0,.16,0h.52l1.15,1.78h1l-1.23-1.82a1.81,1.81,0,0,0-.17-.23,1.29,1.29,0,0,0,.88-1.26c0-.89-.69-1.4-1.91-1.4a10.48,10.48,0,0,0-1.26.07V32.4Zm1-2.4a.42.42,0,0,0-.16,0,.41.41,0,0,0,0-.16v-1.3a.45.45,0,0,0,0-.17H148c.68,0,1,.29,1,.82s-.31.79-.62.79Z"/><path class="cls-2" d="M155,27.75h-2.67V32.4h2.89l.11-.71h-2a.42.42,0,0,0-.16,0,.4.4,0,0,0,0-.16V30.47a.4.4,0,0,0,0-.16.42.42,0,0,0,.16,0h1.51v-.69h-1.51a.42.42,0,0,0-.16,0,.4.4,0,0,0,0-.16v-.89a.4.4,0,0,0,0-.16.42.42,0,0,0,.16,0H155v-.72Z"/><path class="cls-2" d="M45.2,27.77V32.4h.87V30.84a.3.3,0,0,0,0-.14l.59,0a1.57,1.57,0,0,0,1.77-1.54c0-1-.69-1.5-1.89-1.5-.22,0-.63,0-1,0l-.32,0Zm.87.82a.43.43,0,0,0,0-.16h.46c.67,0,1,.29,1,.83s-.38.81-1,.81H46a.38.38,0,0,0,0-.16v-1.3Z"/><path class="cls-2" d="M50.48,32.4h.87V30.76a.41.41,0,0,0,0-.16.41.41,0,0,0,.16,0H52l1.15,1.78h1l-1.23-1.82a1.9,1.9,0,0,0-.17-.23,1.29,1.29,0,0,0,.88-1.26c0-.89-.69-1.4-1.91-1.4a10.47,10.47,0,0,0-1.26.07V32.4Zm1-2.4a.42.42,0,0,0-.16,0,.41.41,0,0,0,0-.16v-1.3a.44.44,0,0,0,0-.17h.43c.68,0,1,.29,1,.82s-.3.79-.62.79Z"/><path class="cls-2" d="M58.22,27.63a2.39,2.39,0,0,0-2.48,2.44,2.35,2.35,0,0,0,2.39,2.45,2.32,2.32,0,0,0,2.44-2.43,2.36,2.36,0,0,0-2.35-2.45Zm-.11.76a1.64,1.64,0,0,1,1.53,1.79,1.41,1.41,0,0,1-1.4,1.56A1.62,1.62,0,0,1,56.68,30a1.43,1.43,0,0,1,1.43-1.57Z"/><path class="cls-2" d="M65.31,27.75H62.69V32.4h.87V30.59a.41.41,0,0,0,0-.16.41.41,0,0,0,.16,0h1.41v-.7H63.7a.41.41,0,0,0-.16,0,.41.41,0,0,0,0-.16v-1a.41.41,0,0,0,0-.16.41.41,0,0,0,.16,0h1.61v-.72Z"/><path class="cls-2" d="M70.27,27.75H67.6V32.4h2.89l.11-.71h-2a.42.42,0,0,0-.16,0,.41.41,0,0,0,0-.16V30.47a.41.41,0,0,0,0-.16.42.42,0,0,0,.16,0H70.1v-.69H68.59a.41.41,0,0,0-.16,0,.41.41,0,0,0,0-.16v-.89a.41.41,0,0,0,0-.16.41.41,0,0,0,.16,0h1.68v-.72Z"/><path class="cls-2" d="M75.35,28.08a2.11,2.11,0,0,0-1.29-.44A1.38,1.38,0,0,0,72.57,29a1.23,1.23,0,0,0,.5,1,4.19,4.19,0,0,0,.87.47c.45.21.62.39.62.67a.65.65,0,0,1-.71.66,1.92,1.92,0,0,1-1.3-.6l-.13.83a2.52,2.52,0,0,0,1.5.49,1.47,1.47,0,0,0,1.6-1.42,1.21,1.21,0,0,0-.44-1,4.58,4.58,0,0,0-1-.55c-.46-.22-.61-.39-.61-.67a.59.59,0,0,1,.62-.57,1.56,1.56,0,0,1,1,.4l.26-.68Z"/><path class="cls-2" d="M80.3,28.08A2.11,2.11,0,0,0,79,27.64,1.38,1.38,0,0,0,77.52,29a1.23,1.23,0,0,0,.5,1,4.19,4.19,0,0,0,.87.47c.45.21.62.39.62.67a.65.65,0,0,1-.71.66,1.92,1.92,0,0,1-1.3-.6l-.13.83a2.52,2.52,0,0,0,1.5.49,1.47,1.47,0,0,0,1.6-1.42,1.21,1.21,0,0,0-.44-1,4.58,4.58,0,0,0-1-.55c-.46-.22-.61-.39-.61-.67a.59.59,0,0,1,.62-.57,1.56,1.56,0,0,1,1,.4l.26-.68Z"/><polygon class="cls-2" points="83.52 27.75 82.65 27.75 82.65 32.4 83.52 32.4 83.52 27.75 83.52 27.75 83.52 27.75"/><path class="cls-2" d="M88.24,27.63a2.39,2.39,0,0,0-2.48,2.44,2.35,2.35,0,0,0,2.39,2.45,2.32,2.32,0,0,0,2.44-2.43,2.36,2.36,0,0,0-2.35-2.45Zm-.11.76a1.64,1.64,0,0,1,1.53,1.79,1.41,1.41,0,0,1-1.4,1.56A1.62,1.62,0,0,1,86.7,30a1.43,1.43,0,0,1,1.43-1.57Z"/><path class="cls-2" d="M92.71,27.82V32.4h.79v-2a12.52,12.52,0,0,0,0-1.29h0c.33.44.41.54.81,1l2.06,2.34.5-.14V27.75h-.79v1.94a12.7,12.7,0,0,0,0,1.29h0c-.33-.44-.42-.55-.81-1l-2-2.32-.52.15Z"/><path class="cls-2" d="M102.53,32.4h.92l-2-4.73h-.7l-2,4.73h.84l.51-1.26H102l.5,1.26ZM101,30.53h-.61c.11-.23.13-.26.25-.56l.13-.33c.17-.42.21-.53.35-.94h0c.13.4.16.5.33.94l.13.34c.11.27.13.32.24.55H101Z"/><path class="cls-2" d="M106.21,27.75h-.86V32.4h2.77l.11-.74h-1.87a.42.42,0,0,0-.16,0,.41.41,0,0,0,0-.16V27.75Z"/></g></g></svg>