<svg xmlns="http://www.w3.org/2000/svg" xmlns:xlink="http://www.w3.org/1999/xlink" viewBox="0 0 864 194.24"><defs><style>.cls-1{fill:url(#Halo_Gold_Gradient);}.cls-2{fill:#2c2c2c;}</style><linearGradient id="Halo_Gold_Gradient" x1="1.48" y1="16.35" x2="120.83" y2="16.35" gradientUnits="userSpaceOnUse"><stop offset="0" stop-color="#edcb84"/><stop offset="1" stop-color="#c8a059"/></linearGradient></defs><title>Asset 1</title><g id="Layer_2" data-name="Layer 2"><g id="Layer_1-2" data-name="Layer 1"><rect class="cls-1" x="1.48" width="119.34" height="32.71"/><polygon class="cls-2" points="233.93 67.96 233.93 112.47 192.69 112.47 192.69 67.96 159.98 67.96 159.98 191.16 192.69 191.16 192.69 141.55 233.93 141.55 233.93 191.16 266.64 191.16 266.64 67.96 233.93 67.96"/><path class="cls-2" d="M414.5,69V68H381.79v82.31c0,12-9.83,17.08-18.62,17.25-8.79-.17-18.62-5.29-18.62-17.25V68H311.83V69h0v75.59c0,30,16.69,49.57,51.33,49.6s51.33-19.65,51.33-49.6V69Z"/><path class="cls-2" d="M543.47,143.19c11.08-5.27,16.9-17.08,16.9-33.8,0-22.35-14.9-41.61-42.88-41.61H459.7v1.64h0V191.16h32.71V155h20.89l21.63,36.16h37.14S545.19,145.9,543.47,143.19ZM510.4,94.86c10.54,0,15.45,7.27,15.45,16.9,0,10.54-5.45,17.81-15.26,18.17l-18.17.55V94.86Z"/><polygon class="cls-2" points="831.29 67.96 831.29 112.47 790.05 112.47 790.05 67.96 757.34 67.96 757.34 191.16 790.05 191.16 790.05 141.55 831.29 141.55 831.29 191.16 864 191.16 864 67.96 831.29 67.96"/><path class="cls-2" d="M91.12,146.5h0c-4.29,10-13,16.84-27,16.84-16.25,0-29.51-13.29-29.51-33.51S47.84,96.32,64.09,96.32c13,0,22.89,6.85,27.44,18.06l30-11.72c-9.13-21.89-29.57-37.24-57.42-37.24C27.32,65.41,0,93.37,0,129.83s27.16,64.41,64.09,64.41a61.65,61.65,0,0,0,58-39.33Z"/><path class="cls-2" d="M688.35,146.5h0c-4.29,10-13,16.84-27,16.84-16.25,0-29.51-13.29-29.51-33.51s13.27-33.51,29.51-33.51c13,0,22.89,6.85,27.44,18.06l30-11.72c-9.13-21.89-29.57-37.24-57.42-37.24-36.77,0-64.09,28-64.09,64.41s27.16,64.41,64.09,64.41a61.65,61.65,0,0,0,58-39.33Z"/></g></g></svg>