<svg xmlns="http://www.w3.org/2000/svg" xmlns:xlink="http://www.w3.org/1999/xlink" viewBox="0 0 418.22 370.36"><defs><style>.cls-1{fill:url(#Halo_Gold_Gradient);}.cls-2{fill:#2c2c2c;}</style><linearGradient id="Halo_Gold_Gradient" x1="1.48" y1="16.35" x2="120.83" y2="16.35" gradientUnits="userSpaceOnUse"><stop offset="0" stop-color="#edcb84"/><stop offset="1" stop-color="#c8a059"/></linearGradient></defs><title>Asset 1</title><g id="Layer_2" data-name="Layer 2"><g id="Layer_1-2" data-name="Layer 1"><rect class="cls-1" x="1.48" width="119.34" height="32.71"/><polygon class="cls-2" points="233.93 74.68 233.93 119.19 192.69 119.19 192.69 74.68 159.98 74.68 159.98 197.87 192.69 197.87 192.69 148.27 233.93 148.27 233.93 197.87 266.64 197.87 266.64 74.68 233.93 74.68"/><path class="cls-2" d="M418.22,75.75V74.68h-34V157c0,12-10.21,17.08-19.35,17.25-9.13-.17-19.35-5.29-19.35-17.25V74.68h-34v1.08h0v75.59c0,30,17.34,49.57,53.33,49.6s53.33-19.65,53.33-49.6V75.77Z"/><path class="cls-2" d="M98.41,319.31c11.08-5.27,16.9-17.08,16.9-33.8,0-22.35-14.9-41.61-42.88-41.61H10.64v1.64h0V367.28H43.35V331.12H68.24l21.63,36.16H127S100.12,322,98.41,319.31ZM65.34,271c10.54,0,15.45,7.27,15.45,16.9,0,10.54-5.45,17.81-15.26,18.17H43.35V271Z"/><polygon class="cls-2" points="385.51 244.08 385.51 288.59 344.27 288.59 344.27 244.08 311.57 244.08 311.57 367.27 344.27 367.27 344.27 317.67 385.51 317.67 385.51 367.27 418.22 367.27 418.22 244.08 385.51 244.08"/><path class="cls-2" d="M91.12,153.22h0c-4.29,10-13,16.84-27,16.84-16.25,0-29.51-13.29-29.51-33.51S47.84,103,64.09,103c13,0,22.89,6.85,27.44,18.06l30-11.72c-9.13-21.89-29.57-37.24-57.42-37.24C27.32,72.13,0,100.08,0,136.55S27.16,201,64.09,201a61.65,61.65,0,0,0,58-39.33Z"/><path class="cls-2" d="M242.25,322.62h0c-4.29,10-13,16.84-27,16.84-16.25,0-29.51-13.29-29.51-33.51s13.27-33.51,29.51-33.51c13,0,22.89,6.85,27.44,18.06l30-11.72c-9.13-21.89-29.57-37.24-57.42-37.24-36.77,0-64.09,28-64.09,64.41s27.16,64.41,64.09,64.41a61.65,61.65,0,0,0,58-39.33Z"/></g></g></svg>