<?xml version="1.0" encoding="utf-8"?>
<!-- Generator: Adobe Illustrator 21.0.2, SVG Export Plug-In . SVG Version: 6.00 Build 0)  -->
<svg version="1.1"
	 id="svg2" xmlns:cc="http://creativecommons.org/ns#" xmlns:dc="http://purl.org/dc/elements/1.1/" xmlns:rdf="http://www.w3.org/1999/02/22-rdf-syntax-ns#" xmlns:svg="http://www.w3.org/2000/svg"
	 xmlns="http://www.w3.org/2000/svg" xmlns:xlink="http://www.w3.org/1999/xlink" x="0px" y="0px" viewBox="0 0 75.7 55.8"
	 style="enable-background:new 0 0 75.7 55.8;" xml:space="preserve">
<style type="text/css">
	.st0{fill:#2C2C2C;}
	.st1{fill:#F7F7F2;}
	.st2{fill:url(#SVGID_1_);}
</style>
<path class="st0" d="M56.1,47.9v7.9h10v-9.1C66.1,46.6,62.3,49.1,56.1,47.9z"/>
<path class="st0" d="M28.6,46.6v9.1h10v-7.9C32.3,49.1,28.6,46.6,28.6,46.6z"/>
<path id="path32" class="st1" d="M39.8,43.2h-10v-10h10V43.2z"/>
<path id="path34" class="st1" d="M64.8,43.2h-10v-10h10V43.2z"/>
<g id="g36" transform="translate(0.3726,24.1646)">
	<path id="path38" class="st0" d="M24.9,1.4c0,0,0-1.5,1.5-1.5C28-0.1,28,1.4,28,1.4l0,7.1c0.2-0.1,0.5-0.2,0.8-0.3l0-9.9
		c0,0,0-1.5,1.5-1.5c1.5,0,1.5,1.5,1.5,1.5l0,9.3c0.2,0,0.5,0,0.8-0.1l0-10.8c0,0,0-1.5,1.5-1.5c1.5,0,1.5,1.5,1.5,1.5l0,10.8
		c0.3,0,0.5,0,0.8,0.1l0-10c0,0,0-1.5,1.5-1.5c1.5,0,1.5,1.5,1.5,1.5l0,10.6l0,0.9v0.8c-4.6,0-7.7,3.8-7.7,7.6
		c0,0.8,0.8,0.8,0.8,0.8c0-4.6,3.1-7.6,7.7-7.6l2.2-5.2c0,0,0.5-1.4,1.9-1c1.4,0.5,1,1.9,1,1.9l-1.1,3.9c-0.4,1.5-0.9,3.1-1.1,4.7
		c-0.6,4.5-4.5,7.9-9.1,7.9c-5.1,0-9.2-4.1-9.2-9.2c0-0.3,0-0.5,0-0.8l0,0L24.9,1.4z"/>
</g>
<g id="g40" transform="translate(35.6172,24.1646)">
	<path id="path42" class="st0" d="M33.7,1.4c0,0,0-1.5-1.5-1.5c-1.5,0-1.5,1.5-1.5,1.5l0,7.1c-0.2-0.1-0.5-0.2-0.8-0.3l0-9.9
		c0,0,0-1.5-1.5-1.5c-1.5,0-1.5,1.5-1.5,1.5l0,9.3c-0.2,0-0.5,0-0.8-0.1l0-10.8c0,0,0-1.5-1.5-1.5C23-4.7,23-3.2,23-3.2l0,10.8
		c-0.3,0-0.5,0-0.8,0.1l0-10c0,0,0-1.5-1.5-1.5c-1.5,0-1.5,1.5-1.5,1.5l0,10.6l0,0.9v0.8c4.6,0,7.7,3.8,7.7,7.6
		c0,0.8-0.8,0.8-0.8,0.8c0-4.6-3.1-7.6-7.7-7.6l-2.2-5.2c0,0-0.5-1.4-1.9-1c-1.4,0.5-1,1.9-1,1.9l1.1,3.9c0.4,1.5,0.9,3.1,1.1,4.7
		c0.6,4.5,4.5,7.9,9.1,7.9c5.1,0,9.2-4.1,9.2-9.2c0-0.3,0-0.5,0-0.8l0,0L33.7,1.4z"/>
</g>
<linearGradient id="SVGID_1_" gradientUnits="userSpaceOnUse" x1="35.5172" y1="10.4425" x2="59.2402" y2="10.4425">
	<stop  offset="5.496094e-02" style="stop-color:#FFB600"/>
	<stop  offset="0.5196" style="stop-color:#F12C54"/>
	<stop  offset="0.5782" style="stop-color:#E72F5D"/>
	<stop  offset="0.6762" style="stop-color:#CE3676"/>
	<stop  offset="0.8015" style="stop-color:#A4419E"/>
	<stop  offset="0.9477" style="stop-color:#6A51D5"/>
	<stop  offset="1" style="stop-color:#5457EB"/>
</linearGradient>
<path class="st2" d="M59,11.3l-3.7,4.8c-0.2,0.3-0.6,0.5-1,0.5c-0.3,0-0.5-0.1-0.8-0.3c-0.5-0.4-0.6-1.2-0.2-1.8L57,9.7
	c0.4-0.5,1.2-0.6,1.8-0.2C59.3,9.9,59.4,10.7,59,11.3z M37.8,9.7c-0.4-0.5-1.2-0.6-1.8-0.2c-0.5,0.4-0.6,1.2-0.2,1.8l3.7,4.8
	c0.2,0.3,0.6,0.5,1,0.5c0.3,0,0.5-0.1,0.8-0.3c0.5-0.4,0.6-1.2,0.2-1.8L37.8,9.7z M47.3,4.3c-0.7,0-1.2,0.6-1.2,1.2V12
	c0,0.7,0.6,1.2,1.2,1.2c0.7,0,1.2-0.6,1.2-1.2V5.6C48.6,4.9,48,4.3,47.3,4.3z"/>
</svg>
