<?xml version="1.0" encoding="utf-8"?>
<!-- Generator: Adobe Illustrator 21.1.0, SVG Export Plug-In . SVG Version: 6.00 Build 0)  -->
<svg version="1.1"
	 id="svg2" xmlns:cc="http://creativecommons.org/ns#" xmlns:dc="http://purl.org/dc/elements/1.1/" xmlns:rdf="http://www.w3.org/1999/02/22-rdf-syntax-ns#" xmlns:svg="http://www.w3.org/2000/svg"
	 xmlns="http://www.w3.org/2000/svg" xmlns:xlink="http://www.w3.org/1999/xlink" x="0px" y="0px" viewBox="0 0 75.7 55.8"
	 style="enable-background:new 0 0 75.7 55.8;" xml:space="preserve">
<style type="text/css">
	.st0{fill:none;stroke:#F7F7F2;stroke-width:10;stroke-miterlimit:10;}
	.st1{fill:#2C2C2C;}
	.st2{fill:#F7F7F2;}
	.st3{fill:url(#SVGID_1_);}
</style>
<g>
	<path class="st0" d="M71.4,51.4v11.7H58.6V53C66.6,54.5,71.4,51.3,71.4,51.4z M23.3,51.3V63h12.8V52.8C28,54.5,23.3,51.3,23.3,51.3
		z M43.9,28.3c-1.8-0.5-2.4,1.3-2.4,1.3l-2.8,6.7c-0.3,0-0.7,0-1,0v-2.2h0V33V19.4c0,0,0-1.9-1.9-1.9c-1.9,0-1.9,1.9-1.9,1.9v12.8
		c-0.4-0.1-0.6-0.1-1-0.1V18.3c0,0,0-1.9-1.9-1.9c-1.9,0-1.9,1.9-1.9,1.9v13.9c-0.4,0.1-0.8,0.1-1,0.1V20.3c0,0,0-1.9-1.9-1.9
		S24,20.3,24,20.3V33c-0.4,0.1-0.8,0.3-1,0.4v-9.1c0,0,0-1.9-2.1-1.9c-1.9,0-1.9,1.9-1.9,1.9l-0.1,14.8c0,0.4,0,0.6,0,1
		c0,6.5,5.3,11.8,11.8,11.8c5.9,0,10.9-4.4,11.7-10.1c0.3-2.1,0.9-4.1,1.4-6l1.4-5C45.2,30.7,45.7,28.9,43.9,28.3z M75.6,24.3
		c0,0,0-1.9-1.9-1.9c-1.9,0-1.9,1.9-1.9,1.9v9.1c-0.3-0.1-0.6-0.3-1-0.4V20.3c0,0,0-1.9-1.9-1.9s-1.9,1.9-1.9,1.9v11.9
		c-0.3,0-0.6,0-1-0.1V18.3c0,0,0-1.9-1.9-1.9c-2.1,0.1-2.1,2.1-2.1,2.1v13.9c-0.4,0-0.6,0-1,0.1V19.5c0,0,0-1.9-1.9-1.9
		c-1.9,0-1.9,1.9-1.9,1.9v13.6v0.9h0v2.3c-0.3,0-0.7,0-1,0l-2.8-6.7c0,0-0.6-1.8-2.4-1.3c-1.8,0.6-1.3,2.4-1.3,2.4l1.4,5
		c0.5,1.9,1.2,4,1.4,6C53,47.7,58,52,63.9,52c6.5,0,11.8-5.3,11.8-11.8c0-0.4,0-0.6,0-1L75.6,24.3z M56.3,12.8c0.5,0,1-0.3,1.3-0.6
		L62.3,6c0.5-0.8,0.4-1.8-0.3-2.3c-0.8-0.5-1.8-0.4-2.3,0.3L55,10.1c-0.5,0.8-0.4,1.8,0.3,2.3C55.6,12.7,55.9,12.8,56.3,12.8z
		 M47.3-3c-0.9,0-1.5,0.8-1.5,1.5v8.3c0,0.9,0.8,1.5,1.5,1.5c0.9,0,1.5-0.8,1.5-1.5v-8.2C49-2.2,48.2-3,47.3-3z M37.3,12.1
		c0.3,0.4,0.8,0.6,1.3,0.6c0.4,0,0.6-0.1,1-0.4c0.6-0.5,0.8-1.5,0.3-2.3l-4.8-6.2c-0.5-0.6-1.5-0.8-2.3-0.3C32.2,4.2,32,5.2,32.5,6
		L37.3,12.1z"/>
	<path class="st1" d="M58.6,53v10.1h12.8V51.4C71.4,51.3,66.6,54.5,58.6,53z"/>
	<path class="st1" d="M23.3,51.3V63h12.8V52.8C28,54.5,23.3,51.3,23.3,51.3z"/>
	<path id="path32" class="st2" d="M37.7,46.9H24.8V34.1h12.8V46.9z"/>
	<path id="path34" class="st2" d="M69.8,46.9H56.9V34.1h12.8V46.9z"/>
	<g id="g36" transform="translate(0.3726,24.1646)">
		<path id="path38" class="st1" d="M18.6,0.1c0,0,0-1.9,1.9-1.9c2.1,0,2.1,1.9,2.1,1.9v9.1c0.3-0.1,0.6-0.3,1-0.4V-3.9
			c0,0,0-1.9,1.9-1.9s1.9,1.9,1.9,1.9V8.1c0.3,0,0.6,0,1-0.1V-5.9c0,0,0-1.9,1.9-1.9s1.9,1.9,1.9,1.9V8c0.4,0,0.6,0,1,0.1V-4.8
			c0,0,0-1.9,1.9-1.9s1.9,1.9,1.9,1.9V8.9V10v1c-5.9,0-9.9,4.9-9.9,9.8c0,1,1,1,1,1c0-5.9,4-9.8,9.9-9.8l2.8-6.7
			c0,0,0.6-1.8,2.4-1.3c1.8,0.6,1.3,2.4,1.3,2.4l-1.4,5c-0.5,1.9-1.2,4-1.4,6c-0.8,5.8-5.8,10.1-11.7,10.1
			c-6.5,0-11.8-5.3-11.8-11.8c0-0.4,0-0.6,0-1l0,0L18.6,0.1z"/>
	</g>
	<g id="g40" transform="translate(35.6172,24.1646)">
		<path id="path42" class="st1" d="M40,0.1c0,0,0-1.9-1.9-1.9c-1.9,0-1.9,1.9-1.9,1.9v9.1c-0.3-0.1-0.6-0.3-1-0.4V-3.9
			c0,0,0-1.9-1.9-1.9s-1.9,1.9-1.9,1.9V8.1c-0.3,0-0.6,0-1-0.1V-5.9c0,0,0-1.9-1.9-1.9c-2.1,0.1-2.1,2.1-2.1,2.1V8.1
			c-0.4,0-0.6,0-1,0.1V-4.6c0,0,0-1.9-1.9-1.9s-1.9,1.9-1.9,1.9V9v1.2v1c5.9,0,9.9,4.9,9.9,9.8c0,1-1,1-1,1c0-5.9-4-9.8-9.9-9.8
			l-2.8-6.7c0,0-0.6-1.8-2.4-1.3c-1.8,0.6-1.3,2.4-1.3,2.4l1.4,5c0.5,1.9,1.2,4,1.4,6c0.8,5.8,5.8,10.1,11.7,10.1
			c6.5,0,11.8-5.3,11.8-11.8c0-0.4,0-0.6,0-1l0,0L40,0.1z"/>
	</g>
	
		<linearGradient id="SVGID_1_" gradientUnits="userSpaceOnUse" x1="32.1723" y1="53.1165" x2="62.6327" y2="53.1165" gradientTransform="matrix(1 0 0 -1 0 58)">
		<stop  offset="0" style="stop-color:#FF2554"/>
		<stop  offset="5.549078e-02" style="stop-color:#F8285B"/>
		<stop  offset="0.1378" style="stop-color:#E4316E"/>
		<stop  offset="0.2368" style="stop-color:#C3408D"/>
		<stop  offset="0.3487" style="stop-color:#9554B9"/>
		<stop  offset="0.47" style="stop-color:#5B6EF0"/>
		<stop  offset="0.5012" style="stop-color:#4B75FF"/>
		<stop  offset="0.6563" style="stop-color:#379AA7"/>
		<stop  offset="0.8245" style="stop-color:#22BF4F"/>
		<stop  offset="0.943" style="stop-color:#15D617"/>
		<stop  offset="1" style="stop-color:#10DF01"/>
	</linearGradient>
	<path class="st3" d="M62.3,6l-4.8,6.2c-0.3,0.4-0.8,0.6-1.3,0.6c-0.4,0-0.6-0.1-1-0.4c-0.6-0.5-0.8-1.5-0.3-2.3l4.8-6.2
		c0.5-0.6,1.5-0.8,2.3-0.3C62.7,4.2,62.8,5.2,62.3,6z M35.1,3.9c-0.5-0.6-1.5-0.8-2.3-0.3C32.2,4.2,32,5.2,32.5,6l4.8,6.2
		c0.3,0.4,0.8,0.6,1.3,0.6c0.4,0,0.6-0.1,1-0.4c0.6-0.5,0.8-1.5,0.3-2.3L35.1,3.9z M47.3-3c-0.9,0-1.5,0.8-1.5,1.5v8.3
		c0,0.9,0.8,1.5,1.5,1.5c0.9,0,1.5-0.8,1.5-1.5v-8.2C49-2.2,48.2-3,47.3-3z"/>
</g>
</svg>
