<?xml version="1.0" encoding="utf-8"?>
<!-- Generator: Adobe Illustrator 21.1.0, SVG Export Plug-In . SVG Version: 6.00 Build 0)  -->
<svg version="1.1" id="Layer_1" xmlns="http://www.w3.org/2000/svg" xmlns:xlink="http://www.w3.org/1999/xlink" x="0px" y="0px"
	 viewBox="0 0 57.4 66.1" style="enable-background:new 0 0 57.4 66.1;" xml:space="preserve">
<style type="text/css">
	.st0{fill:#D0AF72;}
	.st1{fill:url(#SVGID_1_);}
</style>
<title>Asset 1</title>
<g id="Layer_2">
	<g id="svg2">
		<path class="st0" d="M40,56v10.1h12.8V54.4C52.8,54.3,48,57.5,40,56z"/>
		<path class="st0" d="M4.7,54.3V66h12.8V55.8C9.4,57.5,4.7,54.3,4.7,54.3z"/>
		<g id="g36">
			<path id="path38" class="st0" d="M0.4,27.3c0-1,0.8-1.9,1.8-1.9c0,0,0.1,0,0.1,0c1.1-0.1,2,0.7,2.1,1.8c0,0,0,0.1,0,0.1v9.1
				c0.3-0.2,0.7-0.3,1-0.4V23.3c0-1,0.8-1.9,1.8-1.9c0,0,0.1,0,0.1,0c1,0,1.9,0.8,1.9,1.8c0,0,0,0.1,0,0.1v12c0.3,0,0.7,0,1-0.1
				V21.3c0-1,0.9-1.9,1.9-1.9s1.9,0.9,1.9,1.9l0,0v13.9c0.3,0,0.7,0,1,0.1V22.4c0-1,0.9-1.9,1.9-1.9c1,0,1.9,0.9,1.9,1.9v15.8
				c-5.4,0-9.9,4.4-9.9,9.8c0,0.6,0.4,1,1,1c0-5.9,4-9.8,9.9-9.8l2.8-6.7c0.3-1,1.4-1.6,2.4-1.3s1.6,1.4,1.3,2.4l-1.4,5
				c-0.6,2-1.1,4-1.4,6c-0.9,6.5-6.9,10.9-13.4,10C4.3,53.8,0,48.8,0,42.9v-1l0,0L0.4,27.3z"/>
		</g>
		<g id="g40">
			<path id="path42" class="st0" d="M57,27.3c0-1-0.9-1.9-1.9-1.9c-1,0-1.9,0.9-1.9,1.9v9.1c-0.3-0.2-0.7-0.3-1-0.4V23.3
				c0-1-0.9-1.9-1.9-1.9c-1,0-1.9,0.9-1.9,1.9v12c-0.3,0-0.7,0-1-0.1V21.3c0-1-0.8-1.9-1.8-1.9c0,0-0.1,0-0.1,0
				c-1.2,0-2.1,0.9-2.1,2.1v13.8c-0.3,0-0.7,0-1,0.1V22.6c0-1-0.8-1.9-1.9-1.9c-1,0-1.9,0.8-1.9,1.9c0,0,0,0,0,0v15.8
				c5.4,0,9.8,4.4,9.9,9.8c0,0.6-0.4,1-1,1c0-5.9-4-9.8-9.9-9.8l-2.8-6.7c-0.3-1-1.4-1.6-2.4-1.3c-1,0.3-1.6,1.4-1.3,2.4l1.4,5
				c0.6,2,1.1,4,1.4,6c0.9,6.5,6.9,10.9,13.4,10c5.8-0.8,10.1-5.8,10.1-11.7v-1l0,0L57,27.3z"/>
		</g>
		
			<linearGradient id="SVGID_1_" gradientUnits="userSpaceOnUse" x1="13.6" y1="-3481.8994" x2="44.06" y2="-3481.8994" gradientTransform="matrix(1 0 0 -1 0 -3474)">
			<stop  offset="0" style="stop-color:#FF2554"/>
			<stop  offset="6.000000e-02" style="stop-color:#F8285B"/>
			<stop  offset="0.14" style="stop-color:#E4316E"/>
			<stop  offset="0.24" style="stop-color:#C3408D"/>
			<stop  offset="0.35" style="stop-color:#9554B9"/>
			<stop  offset="0.47" style="stop-color:#5B6EF0"/>
			<stop  offset="0.5" style="stop-color:#4B75FF"/>
			<stop  offset="0.66" style="stop-color:#379AA7"/>
			<stop  offset="0.82" style="stop-color:#22BF4F"/>
			<stop  offset="0.94" style="stop-color:#15D617"/>
			<stop  offset="1" style="stop-color:#10DF01"/>
		</linearGradient>
		<path class="st1" d="M43.7,9l-4.8,6.2c-0.3,0.4-0.8,0.6-1.3,0.6c-0.4,0-0.7-0.1-1-0.4c-0.6-0.6-0.8-1.6-0.3-2.3l4.8-6.2
			c0.6-0.6,1.6-0.8,2.3-0.3C44.1,7.2,44.2,8.2,43.7,9z M16.5,6.9c-0.6-0.6-1.6-0.8-2.3-0.3c-0.6,0.6-0.7,1.6-0.3,2.4l4.8,6.2
			c0.3,0.4,0.8,0.6,1.3,0.6c0.4,0,0.7-0.1,1-0.4c0.6-0.6,0.8-1.6,0.3-2.3L16.5,6.9z M28.7,0c-0.8,0-1.5,0.7-1.5,1.5v8.3
			c0,0.8,0.7,1.5,1.5,1.5s1.5-0.7,1.5-1.5V1.6C30.3,0.8,29.8,0.1,29,0C28.9,0,28.8,0,28.7,0z"/>
	</g>
</g>
</svg>
