<svg xmlns="http://www.w3.org/2000/svg" viewBox="0 0 149.4 34.64"><defs><style>.cls-1{fill:#d0af72;}.cls-2{fill:#2c2c2c;}</style></defs><title>Asset 10</title><g id="Layer_2" data-name="Layer 2"><g id="Layer_1-2" data-name="Layer 1"><rect class="cls-1" x="28.68" y="0.44" width="25.19" height="8.27"/><rect class="cls-2" x="36.81" y="13.18" width="8.93" height="21.02"/><polygon class="cls-1" points="91.55 0.44 81.25 0.44 86.4 8.66 91.55 0.44"/><polygon class="cls-2" points="75.34 9.92 69.41 0.44 59.1 0.44 70.86 19.2 70.86 34.2 79.79 34.2 79.79 16.37 79.79 16.37 75.34 9.92"/><polygon class="cls-2" points="136.26 25.93 136.26 8.71 149.23 8.71 149.23 0.44 127.33 0.44 127.33 34.2 149.23 34.2 149.23 25.93 136.26 25.93"/><rect class="cls-2" x="97.66" y="0.44" width="8.93" height="21.02"/><polygon class="cls-1" points="106.59 25.92 97.66 25.92 97.66 34.2 119.56 34.2 119.56 25.93 106.59 25.93 106.59 25.92"/><circle class="cls-1" cx="4.31" cy="28.29" r="4.31"/><circle class="cls-1" cx="145.09" cy="17.32" r="4.31"/><path class="cls-2" d="M13.18,12.81c-2.18-.86-4.23-1.68-4.23-2.69,0-1.46,2.12-1.84,3.25-1.84a6.72,6.72,0,0,1,4.3,1.62l1.26,1.17,4.9-7L21.48,3.2A15.69,15.69,0,0,0,11.66,0C6,0,0,3.56,0,10.16c0,3.53,1.71,6.32,5.09,8.28a30.47,30.47,0,0,0,4.27,1.95c3.28,1.29,4.83,2.07,4.83,3.61a2.16,2.16,0,0,1-.26,1L9.78,34.57c.48,0,1,.07,1.44.07,6.68,0,11.92-4.71,11.92-10.73C23.14,16.76,17.38,14.48,13.18,12.81Z"/></g></g></svg>